<?xml version="1.0" encoding="UTF-8" standalone="no"?>
<!DOCTYPE svg PUBLIC "-//W3C//DTD SVG 1.1//EN" "http://www.w3.org/Graphics/SVG/1.1/DTD/svg11.dtd">
<!-- Generated by graphviz version 2.40.1 (20161225.0304)
 -->
<!-- Title: %0 Pages: 1 -->
<svg height="535pt" viewBox="0.00 0.00 744.21 535.00" width="744pt"
    xmlns="http://www.w3.org/2000/svg">
    <g class="graph" id="graph0" transform="scale(1 1) rotate(0) translate(4 531)">
        <title>%0</title>
        <polygon fill="#ffffff" points="-4,4 -4,-531 740.214,-531 740.214,4 -4,4"
            stroke="transparent" />
        <text fill="#000000" font-family="Times,serif" font-size="30.00" text-anchor="middle"
            x="368.107" y="-496">thirdwavelist-android
        </text>
        <text fill="#000000" font-family="Times,serif" font-size="30.00" text-anchor="middle"
            x="368.107" y="-460"></text>
        <!-- :app -->
        <g id="node1" class="node">
            <title>:app</title>
            <ellipse cx="410.42" cy="-429" fill="#71b8ed" rx="27.8286" ry="18" stroke="#000000" />
            <text fill="#000000" font-family="Times,serif" font-size="14.00" text-anchor="middle"
                x="410.42" y="-424.8">:app
            </text>
        </g>
        <!-- :features:details -->
        <g id="node2" class="node">
            <title>:features:details</title>
            <ellipse cx="262.42" cy="-292" fill="#ff7a3a" rx="72.34" ry="18" stroke="#000000" />
            <text fill="#000000" font-family="Times,serif" font-size="14.00" text-anchor="middle"
                x="262.42" y="-287.8">:features:details
            </text>
        </g>
<!-- :app&#45;&gt;:features:details -->
        <g class="edge" id="edge7">
            <title>:app-&gt;:features:details</title>
            <path d="M394.2997,-414.0778C368.8836,-390.5507 319.2489,-344.6051 288.6486,-316.2791"
                fill="none" stroke="#000000" stroke-dasharray="1,5" />
            <polygon fill="#000000"
                points="291.0214,-313.7062 281.3053,-309.4816 286.2662,-318.8432 291.0214,-313.7062"
                stroke="#000000" />
        </g>
<!-- :features:home -->
        <g id="node3" class="node">
            <title>:features:home</title>
            <ellipse cx="458.42" cy="-292" fill="#ff7a3a" rx="68.3343" ry="18" stroke="#000000" />
            <text fill="#000000" font-family="Times,serif" font-size="14.00" text-anchor="middle"
                x="458.42" y="-287.8">:features:home
            </text>
        </g>
        <!-- :app&#45;&gt;:features:home -->
        <g class="edge" id="edge6">
            <title>:app-&gt;:features:home</title>
            <path d="M416.5969,-411.3701C424.7246,-388.1725 439.0998,-347.1432 448.6943,-319.7589"
                fill="none" stroke="#000000" stroke-dasharray="1,5" />
            <polygon fill="#000000"
                points="452.1109,-320.5921 452.1144,-309.9973 445.5047,-318.2774 452.1109,-320.5921"
                stroke="#000000" />
        </g>
        <!-- :features:settings -->
        <g id="node4" class="node">
            <title>:features:settings</title>
            <ellipse cx="95.42" cy="-292" fill="#ff7a3a" rx="76.4343" ry="18" stroke="#000000" />
            <text fill="#000000" font-family="Times,serif" font-size="14.00" text-anchor="middle"
                x="95.42" y="-287.8">:features:settings
            </text>
        </g>
        <!-- :app&#45;&gt;:features:settings -->
        <g class="edge" id="edge8">
            <title>:app-&gt;:features:settings</title>
            <path d="M387.2573,-418.9261C335.4885,-396.4107 209.604,-341.661 141.3097,-311.9584"
                fill="none" stroke="#000000" stroke-dasharray="1,5" />
            <polygon fill="#000000"
                points="142.6352,-308.7182 132.069,-307.9394 139.8433,-315.1374 142.6352,-308.7182"
                stroke="#000000" />
        </g>
        <!-- :features:splash -->
        <g class="node" id="node5">
            <title>:features:splash</title>
            <ellipse cx="653.42" cy="-292" fill="#ff7a3a" rx="71.1998" ry="18" stroke="#000000" />
            <text fill="#000000" font-family="Times,serif" font-size="14.00" text-anchor="middle"
                x="653.42" y="-287.8">:features:splash
            </text>
        </g>
        <!-- :app&#45;&gt;:features:splash -->
        <g class="edge" id="edge5">
            <title>:app-&gt;:features:splash</title>
            <path d="M431.5596,-417.0818C472.517,-393.9906 563.206,-342.8614 615.0633,-313.625"
                fill="none" stroke="#000000" stroke-dasharray="1,5" />
            <polygon fill="#000000"
                points="616.9728,-316.5664 623.9649,-308.6064 613.535,-310.4687 616.9728,-316.5664"
                stroke="#000000" />
        </g>
        <!-- :libraries:core -->
        <g class="node" id="node6">
            <title>:libraries:core</title>
            <ellipse cx="152.42" cy="-155" fill="#e0e0e0" rx="64.8176" ry="18" stroke="#000000" />
            <text fill="#000000" font-family="Times,serif" font-size="14.00" text-anchor="middle"
                x="152.42" y="-150.8">:libraries:core
            </text>
        </g>
        <!-- :app&#45;&gt;:libraries:core -->
        <g id="edge2" class="edge">
            <title>:app-&gt;:libraries:core</title>
            <path
                d="M383.1018,-425.1182C300.5196,-412.7714 56.3347,-371.5631 10.42,-310 -28.2526,-258.1471 54.697,-203.7939 109.393,-175.2596"
                fill="none" stroke="#000000" stroke-dasharray="1,5" />
            <polygon fill="#000000"
                points="111.2585,-178.2369 118.5729,-170.5721 108.0751,-172.0027 111.2585,-178.2369"
                stroke="#000000" />
        </g>
        <!-- :libraries:core&#45;utils -->
        <g class="node" id="node7">
            <title>:libraries:core-utils</title>
            <ellipse cx="362.42" cy="-18" fill="#e0e0e0" rx="84.5169" ry="18" stroke="#000000" />
            <text fill="#000000" font-family="Times,serif" font-size="14.00" text-anchor="middle"
                x="362.42" y="-13.8">:libraries:core-utils
            </text>
        </g>
        <!-- :app&#45;&gt;:libraries:core&#45;utils -->
        <g id="edge1" class="edge">
            <title>:app-&gt;:libraries:core-utils</title>
            <path
                d="M438.2032,-428.2124C521.9453,-424.4188 764.3113,-402.352 733.42,-274 717.4203,-207.5217 714.031,-182.9771 663.42,-137 599.33,-78.778 503.341,-47.5315 437.0737,-31.8805"
                fill="none" stroke="#000000" stroke-dasharray="1,5" />
            <polygon fill="#000000"
                points="437.6414,-28.4198 427.1116,-29.592 436.0741,-35.2421 437.6414,-28.4198"
                stroke="#000000" />
        </g>
        <!-- :libraries:design -->
        <g class="node" id="node8">
            <title>:libraries:design</title>
            <ellipse cx="542.42" cy="-155" fill="#e0e0e0" rx="73.0074" ry="18" stroke="#000000" />
            <text fill="#000000" font-family="Times,serif" font-size="14.00" text-anchor="middle"
                x="542.42" y="-150.8">:libraries:design
            </text>
        </g>
        <!-- :app&#45;&gt;:libraries:design -->
        <g class="edge" id="edge4">
            <title>:app-&gt;:libraries:design</title>
            <path
                d="M431.0164,-416.7396C460.3437,-397.972 513.0567,-359.0782 535.42,-310 554.0853,-269.0376 551.365,-215.5063 547.2255,-183.2698"
                fill="none" stroke="#000000" stroke-dasharray="1,5" />
            <polygon fill="#000000"
                points="550.6672,-182.6114 545.7961,-173.2027 543.7367,-183.5955 550.6672,-182.6114"
                stroke="#000000" />
        </g>
        <!-- :libraries:navigation -->
        <g class="node" id="node9">
            <title>:libraries:navigation</title>
            <ellipse cx="362.42" cy="-155" fill="#e0e0e0" rx="88.6178" ry="18" stroke="#000000" />
            <text fill="#000000" font-family="Times,serif" font-size="14.00" text-anchor="middle"
                x="362.42" y="-150.8">:libraries:navigation
            </text>
        </g>
        <!-- :app&#45;&gt;:libraries:navigation -->
        <g id="edge3" class="edge">
            <title>:app-&gt;:libraries:navigation</title>
            <path
                d="M405.3342,-410.9968C398.9462,-387.8117 388.0243,-346.1896 381.42,-310 373.409,-266.1017 367.8451,-214.5783 364.8932,-183.3813"
                fill="none" stroke="#000000" stroke-dasharray="1,5" />
            <polygon fill="#000000"
                points="368.3616,-182.8765 363.9582,-173.2401 361.3911,-183.5192 368.3616,-182.8765"
                stroke="#000000" />
        </g>
        <!-- :features:details&#45;&gt;:libraries:core -->
        <g class="edge" id="edge10">
            <title>:features:details-&gt;:libraries:core</title>
            <path d="M248.0395,-274.0896C228.9344,-250.2952 195.0552,-208.1001 173.1785,-180.8537"
                fill="none" stroke="#000000" stroke-dasharray="1,5" />
            <polygon fill="#000000"
                points="175.7942,-178.521 166.8041,-172.9148 170.3359,-182.9036 175.7942,-178.521"
                stroke="#000000" />
        </g>
        <!-- :features:details&#45;&gt;:libraries:core&#45;utils -->
        <g class="edge" id="edge9">
            <title>:features:details-&gt;:libraries:core-utils</title>
            <path
                d="M258.8469,-273.6344C253.8823,-243.8793 247.3054,-183.7531 264.42,-137 278.3066,-99.0653 309.8856,-64.4955 333.4669,-42.5098"
                fill="none" stroke="#000000" stroke-dasharray="1,5" />
            <polygon fill="#000000"
                points="336.0769,-44.8671 341.1202,-35.5496 331.3672,-39.6884 336.0769,-44.8671"
                stroke="#000000" />
        </g>
        <!-- :features:details&#45;&gt;:libraries:design -->
        <g class="edge" id="edge12">
            <title>:features:details-&gt;:libraries:design</title>
            <path d="M295.363,-275.8815C346.1991,-251.0081 443.7489,-203.2784 499.8627,-175.8227"
                fill="none" stroke="#000000" stroke-dasharray="1,5" />
            <polygon fill="#000000"
                points="501.7242,-178.8084 509.1684,-171.2696 498.6477,-172.5207 501.7242,-178.8084"
                stroke="#000000" />
        </g>
        <!-- :features:details&#45;&gt;:libraries:navigation -->
        <g class="edge" id="edge11">
            <title>:features:details-&gt;:libraries:navigation</title>
            <path d="M275.4933,-274.0896C292.7866,-250.3978 323.3956,-208.4635 343.2909,-181.2069"
                fill="none" stroke="#000000" stroke-dasharray="1,5" />
            <polygon fill="#000000"
                points="346.2748,-183.0554 349.3436,-172.9148 340.6208,-178.9284 346.2748,-183.0554"
                stroke="#000000" />
        </g>
        <!-- :features:home&#45;&gt;:libraries:core -->
        <g class="edge" id="edge14">
            <title>:features:home-&gt;:libraries:core</title>
            <path d="M423.6159,-276.4177C367.5595,-251.3206 257.3804,-201.992 196.1194,-174.5648"
                fill="none" stroke="#000000" stroke-dasharray="1,5" />
            <polygon fill="#000000"
                points="197.2804,-171.2498 186.7232,-170.3579 194.42,-177.6387 197.2804,-171.2498"
                stroke="#000000" />
        </g>
        <!-- :features:home&#45;&gt;:libraries:core&#45;utils -->
        <g class="edge" id="edge13">
            <title>:features:home-&gt;:libraries:core-utils</title>
            <path
                d="M498.2657,-277.1992C559.075,-252.2517 664.0269,-198.4901 624.42,-137 584.4434,-74.9358 503.319,-44.8719 441.8716,-30.5449"
                fill="none" stroke="#000000" stroke-dasharray="1,5" />
            <polygon fill="#000000"
                points="442.3252,-27.06 431.8027,-28.2956 440.7991,-33.8916 442.3252,-27.06"
                stroke="#000000" />
        </g>
        <!-- :features:home&#45;&gt;:libraries:design -->
        <g class="edge" id="edge16">
            <title>:features:home-&gt;:libraries:design</title>
            <path d="M469.4016,-274.0896C483.8651,-250.5003 509.4171,-208.8263 526.1341,-181.5617"
                fill="none" stroke="#000000" stroke-dasharray="1,5" />
            <polygon fill="#000000"
                points="529.1925,-183.2694 531.4358,-172.9148 523.2249,-179.6104 529.1925,-183.2694"
                stroke="#000000" />
        </g>
        <!-- :features:home&#45;&gt;:libraries:navigation -->
        <g class="edge" id="edge15">
            <title>:features:home-&gt;:libraries:navigation</title>
            <path d="M445.8697,-274.0896C429.2681,-250.3978 399.8835,-208.4635 380.784,-181.2069"
                fill="none" stroke="#000000" stroke-dasharray="1,5" />
            <polygon fill="#000000"
                points="383.5785,-179.0957 374.9734,-172.9148 377.8458,-183.1128 383.5785,-179.0957"
                stroke="#000000" />
        </g>
        <!-- :features:settings&#45;&gt;:libraries:core -->
        <g class="edge" id="edge18">
            <title>:features:settings-&gt;:libraries:core</title>
            <path d="M102.9892,-273.8075C112.6988,-250.4703 129.6321,-209.7709 140.9342,-182.6062"
                fill="none" stroke="#000000" stroke-dasharray="1,5" />
            <polygon fill="#000000"
                points="144.2096,-183.8451 144.8196,-173.2678 137.7467,-181.1561 144.2096,-183.8451"
                stroke="#000000" />
        </g>
        <!-- :features:settings&#45;&gt;:libraries:core&#45;utils -->
        <g class="edge" id="edge17">
            <title>:features:settings-&gt;:libraries:core-utils</title>
            <path
                d="M86.4922,-273.9704C72.6132,-243.1039 50.2317,-179.3743 78.42,-137 122.4255,-70.8487 211.0549,-41.3981 277.664,-28.3306"
                fill="none" stroke="#000000" stroke-dasharray="1,5" />
            <polygon fill="#000000"
                points="278.5536,-31.725 287.7389,-26.4449 277.2657,-24.8444 278.5536,-31.725"
                stroke="#000000" />
        </g>
        <!-- :features:settings&#45;&gt;:libraries:design -->
        <g class="edge" id="edge20">
            <title>:features:settings-&gt;:libraries:design</title>
            <path d="M142.412,-277.5975C225.4841,-252.137 397.877,-199.3007 486.7571,-172.06"
                fill="none" stroke="#000000" stroke-dasharray="1,5" />
            <polygon fill="#000000"
                points="487.8562,-175.3839 496.3916,-169.1072 485.8049,-168.6912 487.8562,-175.3839"
                stroke="#000000" />
        </g>
        <!-- :features:settings&#45;&gt;:libraries:navigation -->
        <g class="edge" id="edge19">
            <title>:features:settings-&gt;:libraries:navigation</title>
            <path d="M127.3613,-275.6107C175.5448,-250.8873 266.8636,-204.0309 320.3915,-176.5652"
                fill="none" stroke="#000000" stroke-dasharray="1,5" />
            <polygon fill="#000000"
                points="322.3076,-179.5159 329.6069,-171.8367 319.112,-173.2879 322.3076,-179.5159"
                stroke="#000000" />
        </g>
        <!-- :features:splash&#45;&gt;:libraries:core&#45;utils -->
        <g class="edge" id="edge21">
            <title>:features:splash-&gt;:libraries:core-utils</title>
            <path
                d="M657.7406,-273.7391C664.0052,-242.5232 671.884,-178.2812 642.42,-137 596.7429,-73.003 509.5136,-43.1958 444.4996,-29.4557"
                fill="none" stroke="#000000" stroke-dasharray="1,5" />
            <polygon fill="#000000"
                points="445.1674,-26.0199 434.6715,-27.4642 443.7772,-32.8805 445.1674,-26.0199"
                stroke="#000000" />
        </g>
        <!-- :features:splash&#45;&gt;:libraries:design -->
        <g class="edge" id="edge23">
            <title>:features:splash-&gt;:libraries:design</title>
            <path d="M638.9087,-274.0896C619.63,-250.2952 585.4428,-208.1001 563.3672,-180.8537"
                fill="none" stroke="#000000" stroke-dasharray="1,5" />
            <polygon fill="#000000"
                points="565.9496,-178.4812 556.9349,-172.9148 560.5108,-182.8879 565.9496,-178.4812"
                stroke="#000000" />
        </g>
        <!-- :features:splash&#45;&gt;:libraries:navigation -->
        <g class="edge" id="edge22">
            <title>:features:splash-&gt;:libraries:navigation</title>
            <path d="M619.4691,-276.0162C566.9215,-251.2773 465.862,-203.6995 407.3321,-176.1442"
                fill="none" stroke="#000000" stroke-dasharray="1,5" />
            <polygon fill="#000000"
                points="408.5065,-172.8286 397.9681,-171.7357 405.5248,-179.1618 408.5065,-172.8286"
                stroke="#000000" />
        </g>
        <!-- :libraries:core&#45;&gt;:libraries:core&#45;utils -->
        <g class="edge" id="edge24">
            <title>:libraries:core-&gt;:libraries:core-utils</title>
            <path d="M178.1702,-138.2011C215.6961,-113.7199 285.5092,-68.1752 327.5915,-40.7215"
                fill="none" stroke="#000000" stroke-dasharray="1,5" />
            <polygon fill="#000000"
                points="329.6659,-43.5472 336.1289,-35.1519 325.8411,-37.6844 329.6659,-43.5472"
                stroke="#000000" />
        </g>
        <!-- :libraries:navigation&#45;&gt;:libraries:core&#45;utils -->
        <g class="edge" id="edge25">
            <title>:libraries:navigation-&gt;:libraries:core-utils</title>
            <path d="M362.42,-136.8075C362.42,-113.675 362.42,-73.4836 362.42,-46.3242" fill="none"
                stroke="#000000" stroke-dasharray="1,5" />
            <polygon fill="#000000"
                points="365.9201,-46.2677 362.42,-36.2678 358.9201,-46.2678 365.9201,-46.2677"
                stroke="#000000" />
        </g>
</g>
</svg>