<?xml version="1.0" encoding="UTF-8" standalone="no"?>
<!DOCTYPE svg PUBLIC "-//W3C//DTD SVG 1.1//EN" "http://www.w3.org/Graphics/SVG/1.1/DTD/svg11.dtd">
<!-- Generated by graphviz version 2.40.1 (20161225.0304)
 -->
<!-- Title: %0 Pages: 1 -->
<svg width="454pt" height="672pt" viewBox="0.00 0.00 453.98 672.00" xmlns="http://www.w3.org/2000/svg" xmlns:xlink="http://www.w3.org/1999/xlink">
<g id="graph0" class="graph" transform="scale(1 1) rotate(0) translate(4 668)">
<title>%0</title>
<polygon fill="#ffffff" stroke="transparent" points="-4,4 -4,-668 449.9761,-668 449.9761,4 -4,4"/>
<text text-anchor="middle" x="222.988" y="-633" font-family="Times,serif" font-size="30.00" fill="#000000">thirdwavelist-android</text>
<text text-anchor="middle" x="222.988" y="-597" font-family="Times,serif" font-size="30.00" fill="#000000"> </text>
<!-- :app -->
<g id="node1" class="node">
<title>:app</title>
<ellipse fill="#71b8ed" stroke="#000000" cx="125.1674" cy="-566" rx="27.8286" ry="18"/>
<text text-anchor="middle" x="125.1674" y="-561.8" font-family="Times,serif" font-size="14.00" fill="#000000">:app</text>
</g>
<!-- :features:details -->
<g id="node2" class="node">
<title>:features:details</title>
<ellipse fill="#ff7a3a" stroke="#000000" cx="181.1674" cy="-292" rx="72.34" ry="18"/>
<text text-anchor="middle" x="181.1674" y="-287.8" font-family="Times,serif" font-size="14.00" fill="#000000">:features:details</text>
</g>
<!-- :app&#45;&gt;:features:details -->
<g id="edge5" class="edge">
<title>:app-&gt;:features:details</title>
<path fill="none" stroke="#000000" stroke-dasharray="1,5" d="M126.3432,-547.688C128.4556,-518.5068 133.685,-459.7707 144.1674,-411 151.0095,-379.1658 162.5946,-343.6335 170.9811,-319.7535"/>
<polygon fill="#000000" stroke="#000000" points="174.2981,-320.8721 174.3564,-310.2774 167.7039,-318.5233 174.2981,-320.8721"/>
</g>
<!-- :features:home -->
<g id="node3" class="node">
<title>:features:home</title>
<ellipse fill="#ff7a3a" stroke="#000000" cx="221.1674" cy="-429" rx="68.3343" ry="18"/>
<text text-anchor="middle" x="221.1674" y="-424.8" font-family="Times,serif" font-size="14.00" fill="#000000">:features:home</text>
</g>
<!-- :app&#45;&gt;:features:home -->
<g id="edge4" class="edge">
<title>:app-&gt;:features:home</title>
<path fill="none" stroke="#000000" stroke-dasharray="1,5" d="M136.7472,-549.4746C153.1269,-526.0994 183.233,-483.1355 202.7134,-455.3353"/>
<polygon fill="#000000" stroke="#000000" points="205.7616,-457.0843 208.634,-446.8862 200.029,-453.0672 205.7616,-457.0843"/>
</g>
<!-- :libraries:core -->
<g id="node4" class="node">
<title>:libraries:core</title>
<ellipse fill="#e0e0e0" stroke="#000000" cx="98.1674" cy="-155" rx="64.8176" ry="18"/>
<text text-anchor="middle" x="98.1674" y="-150.8" font-family="Times,serif" font-size="14.00" fill="#000000">:libraries:core</text>
</g>
<!-- :app&#45;&gt;:libraries:core -->
<g id="edge2" class="edge">
<title>:app-&gt;:libraries:core</title>
<path fill="none" stroke="#000000" stroke-dasharray="1,5" d="M120.4296,-547.9851C108.9406,-502.3612 80.9139,-378.4587 86.1674,-274 87.7321,-242.8877 91.584,-207.3727 94.505,-183.3"/>
<polygon fill="#000000" stroke="#000000" points="98.0124,-183.4566 95.7701,-173.1017 91.0656,-182.5948 98.0124,-183.4566"/>
</g>
<!-- :libraries:core&#45;utils -->
<g id="node5" class="node">
<title>:libraries:core-utils</title>
<ellipse fill="#e0e0e0" stroke="#000000" cx="191.1674" cy="-18" rx="84.5169" ry="18"/>
<text text-anchor="middle" x="191.1674" y="-13.8" font-family="Times,serif" font-size="14.00" fill="#000000">:libraries:core-utils</text>
</g>
<!-- :app&#45;&gt;:libraries:core&#45;utils -->
<g id="edge1" class="edge">
<title>:app-&gt;:libraries:core-utils</title>
<path fill="none" stroke="#000000" stroke-dasharray="1,5" d="M113.5536,-549.4404C73.5635,-490.2153 -51.8925,-284.593 24.1674,-137 48.5504,-89.6851 101.4159,-57.0466 141.1772,-38.0806"/>
<polygon fill="#000000" stroke="#000000" points="142.8604,-41.1583 150.4659,-33.7822 139.9206,-34.8055 142.8604,-41.1583"/>
</g>
<!-- :libraries:navigation -->
<g id="node6" class="node">
<title>:libraries:navigation</title>
<ellipse fill="#e0e0e0" stroke="#000000" cx="357.1674" cy="-155" rx="88.6178" ry="18"/>
<text text-anchor="middle" x="357.1674" y="-150.8" font-family="Times,serif" font-size="14.00" fill="#000000">:libraries:navigation</text>
</g>
<!-- :app&#45;&gt;:libraries:navigation -->
<g id="edge3" class="edge">
<title>:app-&gt;:libraries:navigation</title>
<path fill="none" stroke="#000000" stroke-dasharray="1,5" d="M149.1291,-556.6017C187.2013,-540.3578 260.9934,-503.2698 298.1674,-447 353.491,-363.2573 358.8421,-238.6803 358.1929,-183.3011"/>
<polygon fill="#000000" stroke="#000000" points="361.69,-183.1105 357.9961,-173.1805 354.6913,-183.2467 361.69,-183.1105"/>
</g>
<!-- :features:details&#45;&gt;:libraries:core -->
<g id="edge7" class="edge">
<title>:features:details-&gt;:libraries:core</title>
<path fill="none" stroke="#000000" stroke-dasharray="1,5" d="M170.3166,-274.0896C156.0252,-250.5003 130.7774,-208.8263 114.2595,-181.5617"/>
<polygon fill="#000000" stroke="#000000" points="117.196,-179.654 109.0208,-172.9148 111.209,-183.2812 117.196,-179.654"/>
</g>
<!-- :features:details&#45;&gt;:libraries:core&#45;utils -->
<g id="edge6" class="edge">
<title>:features:details-&gt;:libraries:core-utils</title>
<path fill="none" stroke="#000000" stroke-dasharray="1,5" d="M181.839,-273.5966C183.5469,-226.801 188.0654,-102.9945 190.1217,-46.6499"/>
<polygon fill="#000000" stroke="#000000" points="193.6315,-46.4443 190.4986,-36.3233 186.6361,-46.1889 193.6315,-46.4443"/>
</g>
<!-- :features:details&#45;&gt;:libraries:navigation -->
<g id="edge8" class="edge">
<title>:features:details-&gt;:libraries:navigation</title>
<path fill="none" stroke="#000000" stroke-dasharray="1,5" d="M203.4579,-274.6489C234.714,-250.3188 291.6652,-205.9875 326.7806,-178.6533"/>
<polygon fill="#000000" stroke="#000000" points="329.0393,-181.3305 334.7805,-172.4261 324.7395,-175.8068 329.0393,-181.3305"/>
</g>
<!-- :features:home&#45;&gt;:features:details -->
<g id="edge12" class="edge">
<title>:features:home-&gt;:features:details</title>
<path fill="none" stroke="#000000" stroke-dasharray="1,5" d="M215.8557,-410.8075C209.0718,-387.5726 197.263,-347.1276 189.3322,-319.9644"/>
<polygon fill="#000000" stroke="#000000" points="192.6635,-318.886 186.501,-310.2678 185.9441,-320.848 192.6635,-318.886"/>
</g>
<!-- :features:home&#45;&gt;:libraries:core -->
<g id="edge10" class="edge">
<title>:features:home-&gt;:libraries:core</title>
<path fill="none" stroke="#000000" stroke-dasharray="1,5" d="M194.4643,-412.2617C165.0866,-392.1082 119.4787,-355.2566 100.1674,-310 82.517,-268.636 87.0577,-215.2274 92.3391,-183.1245"/>
<polygon fill="#000000" stroke="#000000" points="95.8163,-183.5618 94.1276,-173.1024 88.9251,-182.332 95.8163,-183.5618"/>
</g>
<!-- :features:home&#45;&gt;:libraries:core&#45;utils -->
<g id="edge9" class="edge">
<title>:features:home-&gt;:libraries:core-utils</title>
<path fill="none" stroke="#000000" stroke-dasharray="1,5" d="M229.5086,-410.9444C239.5861,-388.0448 255.9606,-347.0687 262.1674,-310 278.7195,-211.1452 230.4415,-96.2116 205.3163,-45.0066"/>
<polygon fill="#000000" stroke="#000000" points="208.3754,-43.2985 200.7705,-35.9217 202.1154,-46.4309 208.3754,-43.2985"/>
</g>
<!-- :features:home&#45;&gt;:libraries:navigation -->
<g id="edge11" class="edge">
<title>:features:home-&gt;:libraries:navigation</title>
<path fill="none" stroke="#000000" stroke-dasharray="1,5" d="M233.7386,-411.0312C249.3647,-388.2213 276.2754,-347.3376 295.1674,-310 316.916,-267.0166 336.559,-214.5094 347.6627,-182.9644"/>
<polygon fill="#000000" stroke="#000000" points="351.1094,-183.7091 351.0916,-173.1143 344.4985,-181.4077 351.1094,-183.7091"/>
</g>
<!-- :libraries:core&#45;&gt;:libraries:core&#45;utils -->
<g id="edge13" class="edge">
<title>:libraries:core-&gt;:libraries:core-utils</title>
<path fill="none" stroke="#000000" stroke-dasharray="1,5" d="M110.3255,-137.0896C126.4083,-113.3978 154.8746,-71.4635 173.3773,-44.2069"/>
<polygon fill="#000000" stroke="#000000" points="176.2855,-46.1543 179.0063,-35.9148 170.4939,-42.2227 176.2855,-46.1543"/>
</g>
<!-- :libraries:navigation&#45;&gt;:libraries:core&#45;utils -->
<g id="edge14" class="edge">
<title>:libraries:navigation-&gt;:libraries:core-utils</title>
<path fill="none" stroke="#000000" stroke-dasharray="1,5" d="M335.8056,-137.3701C306.4216,-113.1195 253.4255,-69.3817 220.3895,-42.1171"/>
<polygon fill="#000000" stroke="#000000" points="222.3876,-39.2281 212.4471,-35.5622 217.9319,-44.6269 222.3876,-39.2281"/>
</g>
</g>
</svg>