<?xml version="1.0" encoding="UTF-8" standalone="no"?>
<!DOCTYPE svg PUBLIC "-//W3C//DTD SVG 1.1//EN" "http://www.w3.org/Graphics/SVG/1.1/DTD/svg11.dtd">
<!-- Generated by graphviz version 2.40.1 (20161225.0304)
 -->
<!-- Title: %0 Pages: 1 -->
<svg height="543pt" viewBox="0.00 0.00 610.70 542.87" width="611pt"
    xmlns="http://www.w3.org/2000/svg">
    <g class="graph" id="graph0" transform="scale(1 1) rotate(0) translate(4 538.8718)">
        <title>%0</title>
        <polygon fill="#ffffff" points="-4,4 -4,-538.8718 606.7044,-538.8718 606.7044,4 -4,4"
            stroke="transparent" />
        <text fill="#000000" font-family="Times,serif" font-size="30.00" text-anchor="middle"
            x="301.3522" y="-503.8718">thirdwavelist&#45;android
        </text>
        <text fill="#000000" font-family="Times,serif" font-size="30.00" text-anchor="middle"
            x="301.3522" y="-467.8718"></text>
        <!-- :app -->
        <g id="node1" class="node">
            <title>:app</title>
            <ellipse cx="316.3574" cy="-429" fill="#71b8ed" rx="27.8286" ry="18" stroke="#000000" />
            <text fill="#000000" font-family="Times,serif" font-size="14.00" text-anchor="middle"
                x="316.3574" y="-424.8">:app
            </text>
        </g>
        <!-- :app&#45;&gt;:app -->
        <g class="edge" id="edge1">
            <title>:app&#45;&gt;:app</title>
            <path
                d="M327.5928,-445.9772C343.0671,-461.4872 362.0212,-455.8281 362.0212,-429 362.0212,-406.783 349.0226,-399.0835 335.7662,-405.9015"
                fill="none" stroke="#000000" />
            <polygon fill="#000000"
                points="333.4988,-403.2268 327.5928,-412.0228 337.695,-408.8297 333.4988,-403.2268"
                stroke="#000000" />
        </g>
        <!-- :features:details -->
        <g id="node2" class="node">
            <title>:features:details</title>
            <ellipse cx="316.3574" cy="-292" fill="#ff7a3a" rx="72.34" ry="18" stroke="#000000" />
            <text fill="#000000" font-family="Times,serif" font-size="14.00" text-anchor="middle"
                x="316.3574" y="-287.8">:features:details
            </text>
        </g>
        <!-- :app&#45;&gt;:features:details -->
        <g class="edge" id="edge7">
            <title>:app&#45;&gt;:features:details</title>
            <path d="M316.3574,-410.8075C316.3574,-387.675 316.3574,-347.4836 316.3574,-320.3242"
                fill="none" stroke="#000000" stroke-dasharray="1,5" />
            <polygon fill="#000000"
                points="319.8575,-320.2677 316.3574,-310.2678 312.8575,-320.2678 319.8575,-320.2677"
                stroke="#000000" />
        </g>
        <!-- :features:home -->
        <g id="node3" class="node">
            <title>:features:home</title>
            <ellipse cx="475.3574" cy="-292" fill="#ff7a3a" rx="68.3343" ry="18" stroke="#000000" />
            <text fill="#000000" font-family="Times,serif" font-size="14.00" text-anchor="middle"
                x="475.3574" y="-287.8">:features:home
            </text>
        </g>
        <!-- :app&#45;&gt;:features:home -->
        <g class="edge" id="edge6">
            <title>:app&#45;&gt;:features:home</title>
            <path d="M333.0726,-414.5975C360.1951,-391.2278 414.0854,-344.7941 447.2019,-316.2597"
                fill="none" stroke="#000000" stroke-dasharray="1,5" />
            <polygon fill="#000000"
                points="449.8538,-318.5948 455.1449,-309.4158 445.2845,-313.2918 449.8538,-318.5948"
                stroke="#000000" />
        </g>
        <!-- :features:settings -->
        <g id="node4" class="node">
            <title>:features:settings</title>
            <ellipse cx="112.3574" cy="-292" fill="#ff7a3a" rx="76.4343" ry="18" stroke="#000000" />
            <text fill="#000000" font-family="Times,serif" font-size="14.00" text-anchor="middle"
                x="112.3574" y="-287.8">:features:settings
            </text>
        </g>
        <!-- :app&#45;&gt;:features:settings -->
        <g class="edge" id="edge8">
            <title>:app&#45;&gt;:features:settings</title>
            <path d="M296.797,-415.8639C262.0901,-392.5558 189.3481,-343.7045 146.3143,-314.8044"
                fill="none" stroke="#000000" stroke-dasharray="1,5" />
            <polygon fill="#000000"
                points="148.1182,-311.7999 137.8652,-309.1303 144.2156,-317.611 148.1182,-311.7999"
                stroke="#000000" />
        </g>
        <!-- :libraries:core -->
        <g class="node" id="node5">
            <title>:libraries:core</title>
            <ellipse cx="83.3574" cy="-155" fill="#e0e0e0" rx="64.8176" ry="18" stroke="#000000" />
            <text fill="#000000" font-family="Times,serif" font-size="14.00" text-anchor="middle"
                x="83.3574" y="-150.8">:libraries:core
            </text>
        </g>
        <!-- :app&#45;&gt;:libraries:core -->
        <g class="edge" id="edge3">
            <title>:app&#45;&gt;:libraries:core</title>
            <path
                d="M288.6914,-427.2721C228.7454,-421.86 87.441,-399.7182 27.3574,-310 -.1187,-268.9722 34.8998,-212.8202 60.6402,-180.5807"
                fill="none" stroke="#000000" stroke-dasharray="1,5" />
            <polygon fill="#000000"
                points="63.6089,-182.4817 67.2673,-172.5385 58.2068,-178.0301 63.6089,-182.4817"
                stroke="#000000" />
        </g>
        <!-- :libraries:core&#45;utils -->
        <g class="node" id="node6">
            <title>:libraries:core&#45;utils</title>
            <ellipse cx="312.3574" cy="-18" fill="#e0e0e0" rx="84.5169" ry="18" stroke="#000000" />
            <text fill="#000000" font-family="Times,serif" font-size="14.00" text-anchor="middle"
                x="312.3574" y="-13.8">:libraries:core&#45;utils
            </text>
        </g>
        <!-- :app&#45;&gt;:libraries:core&#45;utils -->
        <g class="edge" id="edge2">
            <title>:app&#45;&gt;:libraries:core&#45;utils</title>
            <path
                d="M343.554,-425.6008C397.8062,-417.1957 518.6925,-389.9641 570.3574,-310 612.0865,-245.4139 613.9024,-201.7047 572.3574,-137 532.7228,-75.2709 452.212,-45.1553 391.2222,-30.7245"
                fill="none" stroke="#000000" stroke-dasharray="1,5" />
            <polygon fill="#000000"
                points="391.7547,-27.2565 381.2282,-28.4575 390.2062,-34.0831 391.7547,-27.2565"
                stroke="#000000" />
        </g>
        <!-- :libraries:design -->
        <g class="node" id="node7">
            <title>:libraries:design</title>
            <ellipse cx="472.3574" cy="-155" fill="#e0e0e0" rx="73.0074" ry="18" stroke="#000000" />
            <text fill="#000000" font-family="Times,serif" font-size="14.00" text-anchor="middle"
                x="472.3574" y="-150.8">:libraries:design
            </text>
        </g>
        <!-- :app&#45;&gt;:libraries:design -->
        <g class="edge" id="edge5">
            <title>:app&#45;&gt;:libraries:design</title>
            <path
                d="M343.3648,-424.7043C394.7947,-414.9055 505.8056,-385.6081 552.3574,-310 579.7701,-265.477 533.8158,-210.5047 500.9892,-179.4306"
                fill="none" stroke="#000000" stroke-dasharray="1,5" />
            <polygon fill="#000000"
                points="503.1193,-176.6342 493.3919,-172.4356 498.3779,-181.7839 503.1193,-176.6342"
                stroke="#000000" />
        </g>
        <!-- :libraries:navigation -->
        <g class="node" id="node8">
            <title>:libraries:navigation</title>
            <ellipse cx="254.3574" cy="-155" fill="#e0e0e0" rx="88.6178" ry="18" stroke="#000000" />
            <text fill="#000000" font-family="Times,serif" font-size="14.00" text-anchor="middle"
                x="254.3574" y="-150.8">:libraries:navigation
            </text>
        </g>
        <!-- :app&#45;&gt;:libraries:navigation -->
        <g class="edge" id="edge4">
            <title>:app&#45;&gt;:libraries:navigation</title>
            <path
                d="M301.3643,-413.7151C281.7355,-392.5186 248.3062,-352.0359 235.3574,-310 222.0916,-266.9352 234.061,-214.4523 244.0892,-182.9344"
                fill="none" stroke="#000000" stroke-dasharray="1,5" />
            <polygon fill="#000000"
                points="247.5278,-183.6871 247.3764,-173.0934 240.8884,-181.4693 247.5278,-183.6871"
                stroke="#000000" />
        </g>
        <!-- :features:details&#45;&gt;:libraries:core -->
        <g class="edge" id="edge10">
            <title>:features:details&#45;&gt;:libraries:core</title>
            <path d="M287.787,-275.2011C245.5212,-250.3495 166.3398,-203.7923 119.9027,-176.488"
                fill="none" stroke="#000000" stroke-dasharray="1,5" />
            <polygon fill="#000000"
                points="121.4668,-173.3476 111.0725,-171.296 117.9188,-179.3818 121.4668,-173.3476"
                stroke="#000000" />
        </g>
        <!-- :features:details&#45;&gt;:libraries:core&#45;utils -->
        <g class="edge" id="edge9">
            <title>:features:details&#45;&gt;:libraries:core&#45;utils</title>
            <path
                d="M325.2457,-274.0189C338.3753,-245.2912 360.5629,-187.1652 352.3574,-137 347.0622,-104.6278 334.1684,-69.19 324.4403,-45.4794"
                fill="none" stroke="#000000" stroke-dasharray="1,5" />
            <polygon fill="#000000"
                points="327.5927,-43.9461 320.4964,-36.0788 321.1377,-46.6542 327.5927,-43.9461"
                stroke="#000000" />
        </g>
        <!-- :features:details&#45;&gt;:libraries:design -->
        <g class="edge" id="edge12">
            <title>:features:details&#45;&gt;:libraries:design</title>
            <path d="M336.1149,-274.6489C363.5101,-250.5902 413.1752,-206.9741 444.3748,-179.5744"
                fill="none" stroke="#000000" stroke-dasharray="1,5" />
            <polygon fill="#000000"
                points="447.0632,-181.8715 452.2675,-172.643 442.4441,-176.6119 447.0632,-181.8715"
                stroke="#000000" />
        </g>
        <!-- :features:details&#45;&gt;:libraries:navigation -->
        <g class="edge" id="edge11">
            <title>:features:details&#45;&gt;:libraries:navigation</title>
            <path d="M308.2519,-274.0896C297.7278,-250.8346 279.2496,-210.0039 266.9065,-182.7295"
                fill="none" stroke="#000000" stroke-dasharray="1,5" />
            <polygon fill="#000000"
                points="269.9744,-181.0194 262.6626,-173.352 263.597,-183.9056 269.9744,-181.0194"
                stroke="#000000" />
        </g>
        <!-- :features:home&#45;&gt;:libraries:core -->
        <g class="edge" id="edge14">
            <title>:features:home&#45;&gt;:libraries:core</title>
            <path d="M434.1474,-277.5975C361.6658,-252.2659 211.6452,-199.8353 133.3615,-172.4759"
                fill="none" stroke="#000000" stroke-dasharray="1,5" />
            <polygon fill="#000000"
                points="134.3172,-169.1024 123.7223,-169.1072 132.0077,-175.7105 134.3172,-169.1024"
                stroke="#000000" />
        </g>
        <!-- :features:home&#45;&gt;:libraries:core&#45;utils -->
        <g class="edge" id="edge13">
            <title>:features:home&#45;&gt;:libraries:core&#45;utils</title>
            <path
                d="M495.9871,-274.7386C528.2966,-245.5516 584.21,-184.9462 554.3574,-137 517.8818,-78.4166 443.1814,-47.8443 386.3669,-32.4484"
                fill="none" stroke="#000000" stroke-dasharray="1,5" />
            <polygon fill="#000000"
                points="386.8981,-28.97 376.3388,-29.8365 385.1338,-35.7441 386.8981,-28.97"
                stroke="#000000" />
        </g>
        <!-- :features:home&#45;&gt;:libraries:design -->
        <g class="edge" id="edge16">
            <title>:features:home&#45;&gt;:libraries:design</title>
            <path d="M474.959,-273.8075C474.4524,-250.675 473.5723,-210.4836 472.9776,-183.3242"
                fill="none" stroke="#000000" stroke-dasharray="1,5" />
            <polygon fill="#000000"
                points="476.4756,-183.1887 472.7574,-173.2678 469.4772,-183.342 476.4756,-183.1887"
                stroke="#000000" />
        </g>
        <!-- :features:home&#45;&gt;:libraries:navigation -->
        <g class="edge" id="edge15">
            <title>:features:home&#45;&gt;:libraries:navigation</title>
            <path d="M448.2584,-275.2011C408.6842,-250.6687 334.9893,-204.9845 290.7327,-177.5494"
                fill="none" stroke="#000000" stroke-dasharray="1,5" />
            <polygon fill="#000000"
                points="292.3692,-174.446 282.0257,-172.1519 288.681,-180.3955 292.3692,-174.446"
                stroke="#000000" />
        </g>
        <!-- :features:settings&#45;&gt;:libraries:core -->
        <g class="edge" id="edge18">
            <title>:features:settings&#45;&gt;:libraries:core</title>
            <path d="M108.5064,-273.8075C103.6097,-250.675 95.1021,-210.4836 89.353,-183.3242"
                fill="none" stroke="#000000" stroke-dasharray="1,5" />
            <polygon fill="#000000"
                points="92.7194,-182.3262 87.2243,-173.2678 85.8711,-183.7758 92.7194,-182.3262"
                stroke="#000000" />
        </g>
        <!-- :features:settings&#45;&gt;:libraries:core&#45;utils -->
        <g class="edge" id="edge17">
            <title>:features:settings&#45;&gt;:libraries:core&#45;utils</title>
            <path
                d="M86.2007,-274.9399C45.5957,-246.2987 -24.5809,-186.7906 9.3574,-137 37.021,-96.4147 166.8016,-56.0829 247.2779,-34.3701"
                fill="none" stroke="#000000" stroke-dasharray="1,5" />
            <polygon fill="#000000"
                points="248.5631,-37.6496 257.3213,-31.6878 246.7568,-30.8867 248.5631,-37.6496"
                stroke="#000000" />
        </g>
        <!-- :features:settings&#45;&gt;:libraries:design -->
        <g class="edge" id="edge20">
            <title>:features:settings&#45;&gt;:libraries:design</title>
            <path d="M152.606,-276.6831C218.8452,-251.4755 350.6485,-201.317 422.622,-173.9271"
                fill="none" stroke="#000000" stroke-dasharray="1,5" />
            <polygon fill="#000000"
                points="424.2664,-177.0462 432.3676,-170.2183 421.7766,-170.504 424.2664,-177.0462"
                stroke="#000000" />
        </g>
        <!-- :features:settings&#45;&gt;:libraries:navigation -->
        <g class="edge" id="edge19">
            <title>:features:settings&#45;&gt;:libraries:navigation</title>
            <path d="M130.6307,-274.3701C155.4164,-250.4571 199.842,-207.5958 228.1699,-180.2654"
                fill="none" stroke="#000000" stroke-dasharray="1,5" />
            <polygon fill="#000000"
                points="230.9367,-182.4593 235.7033,-172.9973 226.0765,-177.4217 230.9367,-182.4593"
                stroke="#000000" />
        </g>
        <!-- :libraries:core&#45;&gt;:libraries:core&#45;utils -->
        <g class="edge" id="edge21">
            <title>:libraries:core&#45;&gt;:libraries:core&#45;utils</title>
            <path d="M110.9801,-138.4746C152.021,-113.9218 229.1871,-67.7569 275.1596,-40.2537"
                fill="none" stroke="#000000" stroke-dasharray="1,5" />
            <polygon fill="#000000"
                points="277.1336,-43.1513 283.9183,-35.0138 273.5398,-37.1442 277.1336,-43.1513"
                stroke="#000000" />
        </g>
        <!-- :libraries:navigation&#45;&gt;:libraries:core&#45;utils -->
        <g class="edge" id="edge22">
            <title>:libraries:navigation&#45;&gt;:libraries:core&#45;utils</title>
            <path d="M262.0593,-136.8075C271.9393,-113.4703 289.1697,-72.7709 300.67,-45.6062"
                fill="none" stroke="#000000" stroke-dasharray="1,5" />
            <polygon fill="#000000"
                points="303.948,-46.8411 304.6235,-36.2678 297.5018,-44.112 303.948,-46.8411"
                stroke="#000000" />
        </g>
    </g>
</svg>