<?xml version="1.0" encoding="UTF-8" standalone="no"?><!DOCTYPE svg PUBLIC "-//W3C//DTD SVG 1.1//EN"
    "http://www.w3.org/Graphics/SVG/1.1/DTD/svg11.dtd"><!-- Generated by graphviz version 2.40.1 (20161225.0304)
 -->
<!-- Title: %0 Pages: 1 -->
<svg height="543pt" viewBox="0.00 0.00 332.47 542.87" width="332pt"
    xmlns="http://www.w3.org/2000/svg">
    <g class="graph" id="graph0" transform="scale(1 1) rotate(0) translate(4 538.8718)">
        <title>%0</title>
        <polygon fill="#ffffff" points="-4,4 -4,-538.8718 328.4673,-538.8718 328.4673,4 -4,4"
            stroke="transparent" />
        <text fill="#000000" font-family="Times,serif" font-size="30.00" text-anchor="middle"
            x="162.2337" y="-503.8718">thirdwavelist-android
        </text>
        <text fill="#000000" font-family="Times,serif" font-size="30.00" text-anchor="middle"
            x="162.2337" y="-467.8718"></text>
        <!-- :app -->
        <g class="node" id="node1">
            <title>:app</title>
            <ellipse cx="175.6586" cy="-429" fill="#71b8ed" rx="27.8286" ry="18" stroke="#000000" />
            <text fill="#000000" font-family="Times,serif" font-size="14.00" text-anchor="middle"
                x="175.6586" y="-424.8">:app
            </text>
        </g>
        <!-- :app&#45;&gt;:app -->
        <g class="edge" id="edge1">
            <title>:app-&gt;:app</title>
            <path
                d="M186.8941,-445.9772C202.3683,-461.4872 221.3225,-455.8281 221.3225,-429 221.3225,-406.783 208.3239,-399.0835 195.0675,-405.9015"
                fill="none" stroke="#000000" />
            <polygon fill="#000000"
                points="192.8001,-403.2268 186.8941,-412.0228 196.9963,-408.8297 192.8001,-403.2268"
                stroke="#000000" />
        </g>
        <!-- :features:details -->
        <g class="node" id="node2">
            <title>:features:details</title>
            <ellipse cx="219.6586" cy="-155" fill="#ff7a3a" rx="72.34" ry="18" stroke="#000000" />
            <text fill="#000000" font-family="Times,serif" font-size="14.00" text-anchor="middle"
                x="219.6586" y="-150.8">:features:details
            </text>
        </g>
        <!-- :app&#45;&gt;:features:details -->
        <g class="edge" id="edge5">
            <title>:app-&gt;:features:details</title>
            <path
                d="M180.8901,-411.0224C187.4319,-387.8644 198.5162,-346.2709 204.6586,-310 212.0886,-266.126 216.1651,-214.5956 218.129,-183.3906"
                fill="none" stroke="#000000" stroke-dasharray="1,5" />
            <polygon fill="#000000"
                points="221.6323,-183.4382 218.7375,-173.2465 214.6449,-183.0189 221.6323,-183.4382"
                stroke="#000000" />
        </g>
        <!-- :features:home -->
        <g class="node" id="node3">
            <title>:features:home</title>
            <ellipse cx="127.6586" cy="-292" fill="#ff7a3a" rx="68.3343" ry="18" stroke="#000000" />
            <text fill="#000000" font-family="Times,serif" font-size="14.00" text-anchor="middle"
                x="127.6586" y="-287.8">:features:home
            </text>
        </g>
        <!-- :app&#45;&gt;:features:home -->
        <g class="edge" id="edge4">
            <title>:app-&gt;:features:home</title>
            <path d="M169.4817,-411.3701C161.3541,-388.1725 146.9789,-347.1432 137.3844,-319.7589"
                fill="none" stroke="#000000" stroke-dasharray="1,5" />
            <polygon fill="#000000"
                points="140.574,-318.2774 133.9642,-309.9973 133.9677,-320.5921 140.574,-318.2774"
                stroke="#000000" />
        </g>
        <!-- :libraries:core -->
        <g class="node" id="node4">
            <title>:libraries:core</title>
            <ellipse cx="64.6586" cy="-18" fill="#e0e0e0" rx="64.8176" ry="18" stroke="#000000" />
            <text fill="#000000" font-family="Times,serif" font-size="14.00" text-anchor="middle"
                x="64.6586" y="-13.8">:libraries:core
            </text>
        </g>
        <!-- :app&#45;&gt;:libraries:core -->
        <g class="edge" id="edge2">
            <title>:app-&gt;:libraries:core</title>
            <path
                d="M154.768,-416.8698C125.0741,-398.2642 71.9089,-359.5703 50.6586,-310 12.0392,-219.9128 39.6559,-99.5678 55.5511,-45.8872"
                fill="none" stroke="#000000" stroke-dasharray="1,5" />
            <polygon fill="#000000"
                points="58.9762,-46.6549 58.5508,-36.0686 52.2817,-44.6096 58.9762,-46.6549"
                stroke="#000000" />
        </g>
        <!-- :libraries:navigation -->
        <g class="node" id="node5">
            <title>:libraries:navigation</title>
            <ellipse cx="235.6586" cy="-18" fill="#e0e0e0" rx="88.6178" ry="18" stroke="#000000" />
            <text fill="#000000" font-family="Times,serif" font-size="14.00" text-anchor="middle"
                x="235.6586" y="-13.8">:libraries:navigation
            </text>
        </g>
        <!-- :app&#45;&gt;:libraries:navigation -->
        <g class="edge" id="edge3">
            <title>:app-&gt;:libraries:navigation</title>
            <path
                d="M187.1912,-412.3352C213.6613,-372.9467 278.2182,-270.102 300.6586,-173 311.6491,-125.4429 280.5254,-73.8577 257.631,-43.8129"
                fill="none" stroke="#000000" stroke-dasharray="1,5" />
            <polygon fill="#000000"
                points="260.3661,-41.6287 251.4337,-35.9311 254.8634,-45.9555 260.3661,-41.6287"
                stroke="#000000" />
        </g>
        <!-- :features:details&#45;&gt;:libraries:core -->
        <g class="edge" id="edge6">
            <title>:features:details-&gt;:libraries:core</title>
            <path d="M200.0278,-137.6489C172.6586,-113.458 122.9185,-69.4942 91.9525,-42.1242"
                fill="none" stroke="#000000" stroke-dasharray="1,5" />
            <polygon fill="#000000"
                points="93.9408,-39.2104 84.1301,-35.2103 89.3049,-44.4554 93.9408,-39.2104"
                stroke="#000000" />
        </g>
        <!-- :features:details&#45;&gt;:libraries:navigation -->
        <g class="edge" id="edge7">
            <title>:features:details-&gt;:libraries:navigation</title>
            <path d="M221.7833,-136.8075C224.4849,-113.675 229.1788,-73.4836 232.3507,-46.3242"
                fill="none" stroke="#000000" stroke-dasharray="1,5" />
            <polygon fill="#000000"
                points="235.8414,-46.6063 233.5252,-36.2678 228.8887,-45.7942 235.8414,-46.6063"
                stroke="#000000" />
        </g>
        <!-- :features:home&#45;&gt;:features:details -->
        <g class="edge" id="edge10">
            <title>:features:home-&gt;:features:details</title>
            <path d="M139.686,-274.0896C155.527,-250.5003 183.5125,-208.8263 201.8216,-181.5617"
                fill="none" stroke="#000000" stroke-dasharray="1,5" />
            <polygon fill="#000000"
                points="204.9589,-183.1678 207.6283,-172.9148 199.1477,-179.2653 204.9589,-183.1678"
                stroke="#000000" />
        </g>
        <!-- :features:home&#45;&gt;:libraries:core -->
        <g class="edge" id="edge8">
            <title>:features:home-&gt;:libraries:core</title>
            <path d="M123.525,-274.0221C112.801,-227.3809 84.025,-102.2283 71.0999,-46.0144"
                fill="none" stroke="#000000" stroke-dasharray="1,5" />
            <polygon fill="#000000"
                points="74.4593,-45.0055 68.8075,-36.0441 67.6373,-46.5741 74.4593,-45.0055"
                stroke="#000000" />
        </g>
        <!-- :features:home&#45;&gt;:libraries:navigation -->
        <g class="edge" id="edge9">
            <title>:features:home-&gt;:libraries:navigation</title>
            <path
                d="M125.484,-273.5521C122.7133,-243.6815 120.2685,-183.3965 138.6586,-137 153.4827,-99.6004 184.5461,-64.9347 207.5462,-42.7802"
                fill="none" stroke="#000000" stroke-dasharray="1,5" />
            <polygon fill="#000000"
                points="210.1203,-45.1639 215.002,-35.7607 205.3219,-40.0672 210.1203,-45.1639"
                stroke="#000000" />
        </g>
    </g>
</svg>